<svg xmlns="http://www.w3.org/2000/svg" width="193" height="193" viewBox="0 0 193 193">
  <g id="Group_1" data-name="Group 1" transform="translate(176 -1101)">
    <rect id="Rectangle_5" data-name="Rectangle 5" width="193" height="193" transform="translate(-176 1101)" fill="none"/>
    <path id="home" d="M107.875,48l-.008-.008L62.853,2.975a10.158,10.158,0,0,0-14.367,0L3.5,47.965l-.045.046a10.154,10.154,0,0,0,6.76,17.308c.1.01.209.015.314.015h1.793V98.459a11.9,11.9,0,0,0,11.89,11.889H41.818a3.233,3.233,0,0,0,3.233-3.233V81.145a5.431,5.431,0,0,1,5.425-5.424H60.863a5.43,5.43,0,0,1,5.424,5.424v25.971a3.233,3.233,0,0,0,3.233,3.233H87.131a11.9,11.9,0,0,0,11.89-11.889V65.334h1.664A10.16,10.16,0,0,0,107.875,48Zm-4.578,9.79a3.67,3.67,0,0,1-2.612,1.083h-4.9A3.233,3.233,0,0,0,92.555,62.1V98.459a5.43,5.43,0,0,1-5.424,5.424H72.753V81.145a11.9,11.9,0,0,0-11.89-11.89H50.476a11.9,11.9,0,0,0-11.891,11.89v22.738H24.207a5.431,5.431,0,0,1-5.424-5.424V62.1a3.233,3.233,0,0,0-3.233-3.233H10.737c-.051,0-.1-.006-.152-.007a3.689,3.689,0,0,1-2.543-6.3l0,0,0,0L53.059,7.547a3.691,3.691,0,0,1,5.221,0l45,45,.021.02a3.7,3.7,0,0,1-.007,5.217Zm0,0" transform="translate(-134.754 1142.001)" fill="#fff"/>
  </g>
</svg>
