<svg xmlns="http://www.w3.org/2000/svg" width="193" height="193" viewBox="0 0 193 193">
  <g id="Group_4" data-name="Group 4" transform="translate(-357 -1379)">
    <rect id="Rectangle_10" data-name="Rectangle 10" width="193" height="193" transform="translate(357 1379)" fill="none"/>
    <circle id="Ellipse_6" data-name="Ellipse 6" cx="96.5" cy="96.5" r="96.5" transform="translate(357 1379)" fill="#fff"/>
    <g id="wheel" transform="translate(398 1420)">
      <path id="Path_3" data-name="Path 3" d="M463.363,186.778a2.155,2.155,0,1,0-4.3.293c.08,1.178.12,2.356.12,3.5a50.61,50.61,0,0,1-8.649,28.384,2.155,2.155,0,0,0,3.576,2.408,54.907,54.907,0,0,0,9.384-30.792c0-1.243-.044-2.52-.13-3.8Zm0,0" transform="translate(-353.144 -144.947)" fill="#453bc9"/>
      <path id="Path_4" data-name="Path 4" d="M4.311,87.217A50.41,50.41,0,0,1,14.652,56.476a2.155,2.155,0,1,0-3.432-2.607,55.214,55.214,0,0,0-6.48,55.745,2.155,2.155,0,0,0,3.938-1.752A50.469,50.469,0,0,1,4.311,87.217Zm0,0" transform="translate(0 -41.591)" fill="#453bc9"/>
      <path id="Path_5" data-name="Path 5" d="M180.436,96.232a2.154,2.154,0,1,0,.752-2.585A2.174,2.174,0,0,0,180.436,96.232Zm0,0" transform="translate(-141.422 -73.162)" fill="#453bc9"/>
      <path id="Path_6" data-name="Path 6" d="M308.157,94.572a2.154,2.154,0,1,0-1.166,2.813A2.173,2.173,0,0,0,308.157,94.572Zm0,0" transform="translate(-238.493 -73.149)" fill="#453bc9"/>
      <path id="Path_7" data-name="Path 7" d="M181.234,314.318a2.154,2.154,0,1,0-.815-2.567A2.171,2.171,0,0,0,181.234,314.318Zm0,0" transform="translate(-141.424 -243.478)" fill="#453bc9"/>
      <path id="Path_8" data-name="Path 8" d="M308.135,311.7a2.155,2.155,0,1,0-.75,2.586A2.177,2.177,0,0,0,308.135,311.7Zm0,0" transform="translate(-238.471 -243.479)" fill="#453bc9"/>
      <path id="Path_9" data-name="Path 9" d="M371.817,202.865a2.154,2.154,0,1,0-1.166,2.815A2.176,2.176,0,0,0,371.817,202.865Zm0,0" transform="translate(-288.432 -158.103)" fill="#453bc9"/>
      <path id="Path_10" data-name="Path 10" d="M119.449,205.466a2.155,2.155,0,1,0-.812-2.567A2.172,2.172,0,0,0,119.449,205.466Zm0,0" transform="translate(-92.956 -158.086)" fill="#453bc9"/>
      <path id="Path_11" data-name="Path 11" d="M119.031,80.8A45.6,45.6,0,1,0,60.8,80.531L48.15,107.075a2.155,2.155,0,0,0,1.946,3.082h9.032a2.157,2.157,0,1,0-.111-4.311H53.51L64.3,83.2c.076.052.153.1.23.153A45.515,45.515,0,0,0,76.8,89.208q1.907.58,3.861.991l.239.052L79.5,95.55H74.49a2.155,2.155,0,0,0,0,4.311H104.7a2.155,2.155,0,0,0,0-4.311h-4.94l-1.338-5.138c.076-.013.151-.03.226-.045a45.482,45.482,0,0,0,13.244-4.745q1.741-.95,3.4-2.051c.072-.048.145-.093.216-.141l10.426,22.416H78.7l-.107,0a2.157,2.157,0,0,0,0,4.313h50.713a2.156,2.156,0,0,0,1.955-3.065ZM58.9,72.644A41.249,41.249,0,1,1,102.04,85.1a40.807,40.807,0,0,1-3.985.993c-.242.047-.484.088-.726.131l-.973-3.74A37.449,37.449,0,0,0,121.99,64.447l.015-.029a37.3,37.3,0,0,0-.017-37.259l0,0a37.284,37.284,0,0,0-64.572,0l0,0a37.323,37.323,0,0,0,0,37.287s0,.005.005.008A37.466,37.466,0,0,0,82.967,82.469l-.955,3.6c-.194-.039-.388-.075-.581-.116A40.981,40.981,0,0,1,69,81.084q-1.638-.977-3.185-2.1c-.3-.22-.6-.445-.9-.674a41.4,41.4,0,0,1-6.02-5.67ZM83.958,95.55l5.725-21.585L95.3,95.55Zm7.9-30.345V58.82A13.272,13.272,0,0,0,99.9,54.179l17.221,9.941A33.131,33.131,0,0,1,95.267,78.3Zm27.417-4.816-17.222-9.942a13.224,13.224,0,0,0,0-9.286l17.222-9.944a33.019,33.019,0,0,1,0,29.172Zm-19.38-22.96a13.264,13.264,0,0,0-8.038-4.64V12.9a32.935,32.935,0,0,1,25.259,14.582Zm-2.5,3.934a8.678,8.678,0,0,1,1.082,5.814,8.882,8.882,0,1,1-1.822-6.9,8.79,8.79,0,0,1,.74,1.084Zm-9.85-8.574a13.266,13.266,0,0,0-8.038,4.641L62.287,27.486A32.939,32.939,0,0,1,87.546,12.9ZM60.129,31.217,77.35,41.161a13.21,13.21,0,0,0,0,9.285L60.129,60.388a33.025,33.025,0,0,1,0-29.171Zm19.38,22.962a13.269,13.269,0,0,0,8.038,4.641v6.375l-3.473,13.1A33.142,33.142,0,0,1,62.288,64.12Zm0,0" transform="translate(-34.9 0)" fill="#453bc9"/>
      <path id="Path_12" data-name="Path 12" d="M151.177,491.491a2.154,2.154,0,1,0,.832,2.517A2.176,2.176,0,0,0,151.177,491.491Zm0,0" transform="translate(-115.969 -385.282)" fill="#453bc9"/>
    </g>
  </g>
</svg>
