<svg xmlns="http://www.w3.org/2000/svg" width="193" height="193" viewBox="0 0 193 193">
  <g id="Group_5" data-name="Group 5" transform="translate(-91 -1379)">
    <rect id="Rectangle_9" data-name="Rectangle 9" width="193" height="193" transform="translate(91 1379)" fill="none"/>
    <circle id="Ellipse_5" data-name="Ellipse 5" cx="96.5" cy="96.5" r="96.5" transform="translate(91 1379)" fill="#fff"/>
    <g id="user" transform="translate(141.251 1420)">
      <path id="Path_1" data-name="Path 1" d="M113.61,53.156A25.718,25.718,0,0,0,132.4,45.369a25.719,25.719,0,0,0,7.786-18.792A25.72,25.72,0,0,0,132.4,7.785a26.572,26.572,0,0,0-37.584,0,25.718,25.718,0,0,0-7.787,18.791A25.719,25.719,0,0,0,94.818,45.37,25.726,25.726,0,0,0,113.61,53.156Zm-14.219-40.8a20.1,20.1,0,0,1,28.438,0,19.215,19.215,0,0,1,5.892,14.219A19.214,19.214,0,0,1,127.83,40.8a20.1,20.1,0,0,1-28.438,0A19.211,19.211,0,0,1,93.5,26.577a19.213,19.213,0,0,1,5.893-14.219Zm0,0" transform="translate(-68.274 0)" fill="#453bc9"/>
      <path id="Path_2" data-name="Path 2" d="M91.842,278.866a65.648,65.648,0,0,0-.894-6.973,54.938,54.938,0,0,0-1.715-7.01,34.63,34.63,0,0,0-2.883-6.538A24.646,24.646,0,0,0,82,252.682a19.161,19.161,0,0,0-6.243-3.922,21.575,21.575,0,0,0-7.969-1.442c-1.126,0-2.216.462-4.32,1.832-1.295.844-2.809,1.821-4.5,2.9a25.784,25.784,0,0,1-5.823,2.565,22.61,22.61,0,0,1-14.243,0,25.708,25.708,0,0,1-5.818-2.564c-1.675-1.07-3.19-2.047-4.5-2.9-2.1-1.37-3.192-1.832-4.318-1.832A21.547,21.547,0,0,0,16.3,248.76a19.145,19.145,0,0,0-6.244,3.922,24.652,24.652,0,0,0-4.344,5.663,34.7,34.7,0,0,0-2.882,6.539,55.066,55.066,0,0,0-1.714,7.01,65.2,65.2,0,0,0-.894,6.975c-.146,2.107-.221,4.3-.221,6.516,0,5.76,1.831,10.424,5.442,13.863,3.566,3.394,8.284,5.115,14.023,5.115H72.6c5.738,0,10.456-1.721,14.023-5.115,3.612-3.437,5.443-8.1,5.443-13.864,0-2.223-.076-4.417-.223-6.518Zm-9.678,15.7c-2.356,2.243-5.485,3.333-9.565,3.333H19.465c-4.081,0-7.209-1.09-9.565-3.332-2.311-2.2-3.434-5.2-3.434-9.178,0-2.068.068-4.109.2-6.069a58.809,58.809,0,0,1,.808-6.28,48.567,48.567,0,0,1,1.508-6.18,28.245,28.245,0,0,1,2.346-5.317,18.272,18.272,0,0,1,3.193-4.185,12.711,12.711,0,0,1,4.153-2.582,14.881,14.881,0,0,1,5.093-.982c.226.12.63.35,1.283.776,1.329.866,2.862,1.855,4.556,2.937a32.039,32.039,0,0,0,7.309,3.266,29.071,29.071,0,0,0,18.221,0,32.076,32.076,0,0,0,7.313-3.268c1.733-1.108,3.223-2.068,4.552-2.935.653-.425,1.057-.656,1.283-.776a14.891,14.891,0,0,1,5.094.982,12.729,12.729,0,0,1,4.152,2.582,18.222,18.222,0,0,1,3.193,4.186,28.151,28.151,0,0,1,2.346,5.315,48.455,48.455,0,0,1,1.509,6.18,59.3,59.3,0,0,1,.808,6.281v0c.137,1.952.206,3.993.207,6.067,0,3.976-1.124,6.978-3.435,9.178Zm0,0" transform="translate(0 -194.013)" fill="#453bc9"/>
    </g>
  </g>
</svg>
