<svg xmlns="http://www.w3.org/2000/svg" width="512" height="512" viewBox="0 0 512 512">
  <path id="calendar_1_" data-name="calendar (1)" d="M448,64H426.668V21.332A21.343,21.343,0,0,0,405.332,0H384a21.34,21.34,0,0,0-21.332,21.332V64H149.332V21.332A21.34,21.34,0,0,0,128,0H106.668A21.343,21.343,0,0,0,85.332,21.332V64H64A64.078,64.078,0,0,0,0,128V448a64.078,64.078,0,0,0,64,64H448a64.078,64.078,0,0,0,64-64V128a64.078,64.078,0,0,0-64-64Zm21.332,384A21.367,21.367,0,0,1,448,469.332H64A21.367,21.367,0,0,1,42.668,448V214.187H469.332Zm0,0" transform="translate(0)"/>
</svg>
