<svg id="calendar" xmlns="http://www.w3.org/2000/svg" width="512" height="512" viewBox="0 0 512 512">
  <g id="Group_9" data-name="Group 9">
    <g id="Group_8" data-name="Group 8">
      <path id="Path_15" data-name="Path 15" d="M452,40H428V0H388V40H124V0H84V40H60A60.068,60.068,0,0,0,0,100V452a60.068,60.068,0,0,0,60,60H452a60.068,60.068,0,0,0,60-60V100A60.068,60.068,0,0,0,452,40Zm20,412a20.023,20.023,0,0,1-20,20H60a20.023,20.023,0,0,1-20-20V188H472Zm0-304H40V100A20.023,20.023,0,0,1,60,80H84v40h40V80H388v40h40V80h24a20.023,20.023,0,0,1,20,20Z"/>
    </g>
  </g>
  <g id="Group_11" data-name="Group 11">
    <g id="Group_10" data-name="Group 10">
      <rect id="Rectangle_13" data-name="Rectangle 13" width="40" height="40" transform="translate(76 230)"/>
    </g>
  </g>
  <g id="Group_13" data-name="Group 13">
    <g id="Group_12" data-name="Group 12">
      <rect id="Rectangle_14" data-name="Rectangle 14" width="40" height="40" transform="translate(156 230)"/>
    </g>
  </g>
  <g id="Group_15" data-name="Group 15">
    <g id="Group_14" data-name="Group 14">
      <rect id="Rectangle_15" data-name="Rectangle 15" width="40" height="40" transform="translate(236 230)"/>
    </g>
  </g>
  <g id="Group_17" data-name="Group 17">
    <g id="Group_16" data-name="Group 16">
      <rect id="Rectangle_16" data-name="Rectangle 16" width="40" height="40" transform="translate(316 230)"/>
    </g>
  </g>
  <g id="Group_19" data-name="Group 19">
    <g id="Group_18" data-name="Group 18">
      <rect id="Rectangle_17" data-name="Rectangle 17" width="40" height="40" transform="translate(396 230)"/>
    </g>
  </g>
  <g id="Group_21" data-name="Group 21">
    <g id="Group_20" data-name="Group 20">
      <rect id="Rectangle_18" data-name="Rectangle 18" width="40" height="40" transform="translate(76 310)"/>
    </g>
  </g>
  <g id="Group_23" data-name="Group 23">
    <g id="Group_22" data-name="Group 22">
      <rect id="Rectangle_19" data-name="Rectangle 19" width="40" height="40" transform="translate(156 310)"/>
    </g>
  </g>
  <g id="Group_25" data-name="Group 25">
    <g id="Group_24" data-name="Group 24">
      <rect id="Rectangle_20" data-name="Rectangle 20" width="40" height="40" transform="translate(236 310)"/>
    </g>
  </g>
  <g id="Group_27" data-name="Group 27">
    <g id="Group_26" data-name="Group 26">
      <rect id="Rectangle_21" data-name="Rectangle 21" width="40" height="40" transform="translate(316 310)"/>
    </g>
  </g>
  <g id="Group_29" data-name="Group 29">
    <g id="Group_28" data-name="Group 28">
      <rect id="Rectangle_22" data-name="Rectangle 22" width="40" height="40" transform="translate(76 390)"/>
    </g>
  </g>
  <g id="Group_31" data-name="Group 31">
    <g id="Group_30" data-name="Group 30">
      <rect id="Rectangle_23" data-name="Rectangle 23" width="40" height="40" transform="translate(156 390)"/>
    </g>
  </g>
  <g id="Group_33" data-name="Group 33">
    <g id="Group_32" data-name="Group 32">
      <rect id="Rectangle_24" data-name="Rectangle 24" width="40" height="40" transform="translate(236 390)"/>
    </g>
  </g>
  <g id="Group_35" data-name="Group 35">
    <g id="Group_34" data-name="Group 34">
      <rect id="Rectangle_25" data-name="Rectangle 25" width="40" height="40" transform="translate(316 390)"/>
    </g>
  </g>
  <g id="Group_37" data-name="Group 37">
    <g id="Group_36" data-name="Group 36">
      <rect id="Rectangle_26" data-name="Rectangle 26" width="40" height="40" transform="translate(396 310)"/>
    </g>
  </g>
</svg>
